<?xml version="1.0" standalone="no"?>
<!DOCTYPE svg PUBLIC "-//W3C//DTD SVG 20010904//EN"
 "http://www.w3.org/TR/2001/REC-SVG-20010904/DTD/svg10.dtd">
<svg version="1.0" xmlns="http://www.w3.org/2000/svg"
 width="1024.000000pt" height="1024.000000pt" viewBox="0 0 1024.000000 1024.000000"
 preserveAspectRatio="xMidYMid meet">

<g transform="translate(0.000000,1024.000000) scale(0.100000,-0.100000)"
fill="#000000" stroke="none">
<path d="M5020 7161 c-510 -70 -972 -224 -1390 -464 -366 -209 -686 -463 -962
-760 -286 -310 -485 -588 -745 -1041 -148 -259 -148 -259 -130 -254 8 1 106
91 218 199 342 328 505 472 739 650 287 220 559 390 860 540 731 364 1454 477
2140 334 409 -85 789 -261 1095 -508 189 -152 388 -373 487 -539 22 -37 45
-68 52 -68 6 0 50 13 98 29 163 55 236 66 433 65 142 0 200 -5 273 -21 50 -11
92 -19 92 -18 0 2 -12 38 -26 81 -32 98 -137 317 -206 433 -135 223 -395 516
-609 684 -399 314 -878 531 -1369 621 -229 42 -297 48 -605 51 -262 4 -331 1
-445 -14z"/>
<path d="M4920 5859 c-244 -23 -487 -82 -750 -181 -138 -51 -496 -228 -635
-313 -381 -232 -813 -561 -1255 -954 -113 -100 -522 -492 -518 -496 2 -2 35 2
73 9 62 11 89 24 220 106 83 51 195 121 250 155 1012 629 1611 905 2135 981
151 22 410 14 552 -16 384 -81 693 -319 854 -656 65 -136 66 -132 -41 -172
-103 -39 -198 -50 -290 -34 -43 8 -119 41 -265 115 -332 169 -499 227 -658
227 -167 0 -498 -119 -1097 -395 -193 -88 -1236 -618 -1276 -648 -24 -18 -24
-18 36 -13 33 3 218 51 410 106 562 162 897 254 1083 295 354 78 562 88 732
34 75 -23 250 -106 250 -117 0 -8 -498 -256 -670 -335 -156 -71 -230 -111
-227 -121 6 -16 14 -14 247 68 118 41 296 100 395 130 99 30 322 98 495 151
173 53 468 146 655 206 187 61 344 112 350 112 17 3 72 -308 99 -557 49 -445
47 -434 72 -461 26 -29 47 -31 97 -10 73 30 73 29 321 695 85 228 176 469 203
535 l48 120 50 17 c28 9 239 78 470 153 424 139 765 258 863 301 132 58 316
206 310 249 -7 45 -124 45 -343 0 -93 -19 -172 -35 -174 -35 -2 0 2 7 9 15 17
21 9 26 -60 41 -41 8 -73 9 -102 3 -117 -26 -344 -113 -768 -294 -107 -46
-204 -85 -214 -87 -15 -2 -22 6 -31 44 -64 245 -323 551 -625 739 -349 216
-851 329 -1280 288z"/>
<path d="M3420 3435 c-212 -37 -222 -40 -218 -68 2 -15 62 -47 273 -143 149
-68 297 -137 331 -154 145 -71 321 -16 478 150 108 115 120 161 53 194 -38 18
-41 18 -190 -4 -83 -12 -163 -26 -178 -30 -15 -5 -31 -4 -37 2 -5 5 -36 15
-68 23 -32 8 -88 26 -123 40 -79 31 -90 30 -321 -10z"/>
</g>
</svg>
